<svg width="32" height="37" viewBox="0 0 32 37" fill="none" xmlns="http://www.w3.org/2000/svg"><path d="M29.446 2.086H.34a.337.337 0 00-.34.333v.004C0 3.95.773 5.457 1.74 5.465h23.817c.938 0 1.698.76 1.698 1.698v27.393h2.385c.754 0 1.364-.61 1.364-1.364V1.2s-.26.887-1.558.887z" fill="#4D91E8"/><path d="M25.336 35.848V6.335c0-.032-.001-.063-.003-.095-.043-.79-.722-1.395-1.513-1.395H2.423A2.423 2.423 0 010 2.422v33.214C0 36.389.61 37 1.364 37h22.802c.633 0 1.163-.504 1.17-1.137v-.015z" fill="#EBF2F9"/><path d="M29.79 0H2.423A2.423 2.423 0 000 2.423v.006h29.79a1.215 1.215 0 100-2.429z" fill="#3167AF"/><path d="M26.22 4.845h-3.053c.937 0 1.697.76 1.697 1.698v29.093c0 .753-.61 1.364-1.364 1.364h3.055c.753 0 1.364-.61 1.364-1.364V6.543c0-.938-.76-1.698-1.698-1.698z" fill="#CDDEEE"/><path d="M24.628 20.511H3.86a.558.558 0 010-1.117h20.768a.558.558 0 110 1.117zm0-7.851H3.86a.558.558 0 010-1.116h20.768a.558.558 0 110 1.117zm0 11.803H3.86a.558.558 0 110-1.117h20.768a.558.558 0 110 1.117zm0-7.85H3.86a.558.558 0 010-1.117h20.768a.558.558 0 110 1.117zm-.002 11.802h-9a.558.558 0 110-1.117h9a.558.558 0 110 1.117zm0 3.952h-9a.558.558 0 110-1.117h9a.558.558 0 110 1.117z" fill="#A4BED8"/><path d="M4.668 32.467h7.615a.808.808 0 00.809-.809v-3.552a.808.808 0 00-.809-.808H4.668a.808.808 0 00-.809.809v3.551c0 .447.362.809.809.809z" fill="#4D91E8"/><path d="M12.285 27.298h-2.25v4.36a.808.808 0 01-.809.808h3.059a.808.808 0 00.808-.808v-3.552a.808.808 0 00-.808-.808z" fill="#3167AF"/></svg>