<svg width="35" height="37" viewBox="0 0 35 37" fill="none" xmlns="http://www.w3.org/2000/svg"><path d="M29.397 35H3.427A1.425 1.425 0 012 33.577V1.423C2 .637 2.639 0 3.427 0h25.97c.788 0 1.427.637 1.427 1.423v32.154c0 .786-.64 1.423-1.427 1.423z" fill="#3167AF"/><path d="M27.397 37H1.427A1.425 1.425 0 010 35.577V3.423C0 2.637.639 2 1.427 2h25.97c.788 0 1.427.637 1.427 1.423v32.154c0 .786-.64 1.423-1.427 1.423z" fill="#EBF2F9"/><path d="M14.412 17.52a5.86 5.86 0 100-11.72 5.86 5.86 0 000 11.72z" fill="#3167AF"/><path d="M16.154 10.869v.475c0 1.05-.815 1.9-1.821 1.9s-1.821-.85-1.821-1.9v-.475c0-1.05.815-1.9 1.821-1.9s1.821.85 1.821 1.9z" fill="#A4BED8"/><path d="M14.333 13.244a4.34 4.34 0 00-4.038 2.71 5.957 5.957 0 004.038 1.566c1.561 0 2.98-.594 4.039-1.565a4.34 4.34 0 00-4.039-2.71z" fill="#A4BED8"/><path d="M30.365 12.72l.405-.708a2.256 2.256 0 013.097-.837 2.297 2.297 0 01.83 3.124l-8.915 15.574-3.927-2.286 3.846-6.718 4.664-8.15z" fill="#4D91E8"/><path d="M33.878 11.173a2.229 2.229 0 00-3.063.83l-1.042 1.824 3.885 2.268 1.04-1.824a2.282 2.282 0 00-.82-3.098zm-8.063 18.624L21.223 33.2l.633-5.701 3.96 2.3z" fill="#3167AF"/><path d="M18.276 32.566h-3.93a.72.72 0 00-.727.712.72.72 0 00.728.713h3.93a.72.72 0 00.727-.713.72.72 0 00-.728-.712zm.005-4.118H8.01c-.4 0-.724.32-.724.713 0 .393.324.712.724.712h10.27c.4 0 .724-.319.724-.712a.718.718 0 00-.724-.713zm0-3.959H8.01c-.4 0-.724.319-.724.712 0 .394.324.713.724.713h10.27c.4 0 .724-.32.724-.713a.718.718 0 00-.724-.712zM5.492 20.738a.718.718 0 00-.504-.209.717.717 0 00-.504.21.718.718 0 00-.209.503.719.719 0 00.712.713.719.719 0 00.505-.21.718.718 0 00.209-.503.718.718 0 00-.209-.504zm0 3.96a.719.719 0 00-.504-.21.719.719 0 00-.504.21.718.718 0 00-.209.503.719.719 0 00.712.713.72.72 0 00.505-.209.719.719 0 00.209-.504.718.718 0 00-.209-.503zm-.504 3.75a.719.719 0 00-.504.209.718.718 0 00-.209.504.717.717 0 00.712.713.717.717 0 00.505-.21.718.718 0 00.209-.503.718.718 0 00-.209-.504.72.72 0 00-.504-.209zm13.293-7.918H8.01c-.4 0-.724.319-.724.712 0 .394.324.713.724.713h10.27c.4 0 .724-.32.724-.713a.718.718 0 00-.724-.713z" fill="#BFD1E4"/></svg>