<svg width="23" height="16" viewBox="0 0 23 16" fill="none" xmlns="http://www.w3.org/2000/svg"><path d="M22.042 0H.958C.4 0 0 .402 0 .965v14.07c0 .563.4.965.958.965h21.084c.559 0 .958-.402.958-.965V.965C23 .402 22.6 0 22.042 0zm-7.028 8.683c1.757 1.206 6.389 4.825 6.389 4.825.16.16.16.482.08.643-.08.16-.4.321-.56.16 0 0-4.87-3.537-6.788-4.824-.08-.08-.16 0-.16 0L11.9 11.176a.61.61 0 01-.399.16c-.16 0-.32-.08-.4-.16L9.025 9.487s-.08-.08-.16 0c-1.836 1.287-6.708 4.905-6.708 4.905-.16.16-.559 0-.639-.16-.08-.162-.08-.483.08-.644 0 0 4.632-3.538 6.39-4.744.079-.08 0-.16 0-.16l-6.55-6.03c-.24-.242-.319-.564-.16-.805a.44.44 0 01.4-.241c.16 0 .24 0 .4.08L11.34 9.81c.08.08.16.08.24.08.08 0 .16 0 .24-.08l9.183-8.12c.08-.081.16-.081.32-.081s.32.08.4.241c.159.241.08.563-.16.804l-6.55 5.95c0-.08-.079 0 0 .08z" fill="#3469AD"/></svg>