<svg width="34" height="39" viewBox="0 0 34 39" fill="none" xmlns="http://www.w3.org/2000/svg"><path d="M0 22.222l2.698-1.192 1.883 2.89H0v-1.698z" fill="url(#paint0_linear)"/><path d="M32.03 38.37H3.614a.697.697 0 01-.467-.175.573.573 0 01-.194-.424V.6c0-.16.07-.312.194-.424A.697.697 0 013.614 0h21.858l7.218 6.55v31.22c0 .16-.07.312-.193.424a.697.697 0 01-.467.176z" fill="#F1F3F4"/><path d="M25.679 0v6.694a.674.674 0 00.674.674h6.694l-3.305-3.98L25.679 0z" fill="#C7D7EA"/><path d="M25.955 35.52H1.241a.875.875 0 01-.45-.128 1.25 1.25 0 01-.38-.365 1.855 1.855 0 01-.255-.546 2.33 2.33 0 01-.09-.644V18.606h25.889c.311 0 .61.177.83.493.22.316.344.744.344 1.19v13.548c0 .446-.123.874-.344 1.19-.22.316-.518.493-.83.493z" fill="url(#paint1_linear)"/><path d="M2.698 15.955H1.192a1.193 1.193 0 100 2.385h1.506v-2.385z" fill="url(#paint2_linear)"/><path d="M3.707 29.831v-6.182a.783.783 0 01.783-.783 25.346 25.346 0 013.587.116 2.178 2.178 0 011.565 2.267 2.238 2.238 0 01-1.728 2.33c-.794.096-1.593.133-2.391.112a.252.252 0 00-.252.251v1.889a.782.782 0 01-1.564 0zm1.564-5.402v1.694a.252.252 0 00.252.252 6.858 6.858 0 001.84-.122 1.057 1.057 0 00-.21-2.024 15.284 15.284 0 00-1.63-.053.25.25 0 00-.251.253H5.27zm5.651-.779a.783.783 0 01.783-.784 17.57 17.57 0 013.55.148 2.922 2.922 0 011.908 1.968c.183.593.269 1.211.253 1.831a5.084 5.084 0 01-.238 1.649 2.823 2.823 0 01-1.929 1.984c-1.174.166-2.36.221-3.544.164a.783.783 0 01-.783-.78v-6.18zm1.564.779v4.627a.252.252 0 00.251.252c.622.034 1.246.01 1.863-.074a1.338 1.338 0 001.04-1.07c.12-.464.174-.941.16-1.42a4.626 4.626 0 00-.16-1.378 1.5 1.5 0 00-1.172-1.116 12.962 12.962 0 00-1.735-.074.252.252 0 00-.248.253zm6.264 5.402v-6.182a.784.784 0 01.784-.783h3.872a.656.656 0 010 1.31H20.57a.252.252 0 00-.252.253v1.329a.252.252 0 00.252.253h2.327a.656.656 0 010 1.31H20.57a.25.25 0 00-.232.155.251.251 0 00-.02.097v2.254a.783.783 0 01-1.082.724.78.78 0 01-.486-.72z" fill="#fff"/><defs><linearGradient id="paint0_linear" x1="2.291" y1="20.537" x2="2.291" y2="80.735" gradientUnits="userSpaceOnUse"><stop stop-color="#FF5252"/><stop offset="1" stop-color="#D50000"/></linearGradient><linearGradient id="paint1_linear" x1="741.481" y1="568.625" x2="741.481" y2="1455.51" gradientUnits="userSpaceOnUse"><stop stop-color="#FF5252"/><stop offset="1" stop-color="#D50000"/></linearGradient><linearGradient id="paint2_linear" x1="24.282" y1="54.87" x2="24.282" y2="120.054" gradientUnits="userSpaceOnUse"><stop stop-color="#FF5252"/><stop offset="1" stop-color="#D50000"/></linearGradient></defs></svg>