<svg width="20" height="20" viewBox="0 0 20 20" fill="none" xmlns="http://www.w3.org/2000/svg"><path d="M19.963 15.733c.037.334-.074.593-.297.853l-2.82 2.783c-.111.149-.297.26-.482.371a2.158 2.158 0 01-.594.186h-.371c-.26 0-.705-.037-1.299-.149-.593-.074-1.336-.334-2.19-.668a17.313 17.313 0 01-2.93-1.632 25.319 25.319 0 01-3.525-2.969c-1.002-.964-1.819-1.892-2.45-2.783-.63-.89-1.187-1.706-1.558-2.449a11.384 11.384 0 01-.89-2.04C.37 6.605.223 6.086.148 5.64 0 5.232 0 4.898 0 4.638s.037-.408.037-.408c.037-.185.074-.408.186-.594.111-.222.222-.37.37-.482l2.82-2.82C3.6.111 3.823 0 4.046 0c.185 0 .333.037.482.148.148.112.26.223.371.409l2.263 4.267c.112.222.149.482.112.742-.074.26-.186.482-.371.668l-1.04 1.039c-.036.037-.036.074-.074.148-.037.074-.037.111-.037.149.075.296.186.63.371 1.001.186.334.446.743.78 1.225.334.482.853 1.039 1.484 1.67.63.63 1.187 1.15 1.707 1.521.482.371.89.63 1.224.78.334.185.594.259.78.296l.26.037c.036 0 .073 0 .148-.037.074-.037.111-.037.148-.074l1.187-1.225a1.33 1.33 0 01.891-.334c.223 0 .445.037.557.112h.037l4.081 2.412c.334.296.483.52.557.779z" fill="#3469AD"/></svg>