<svg width="30" height="23" viewBox="0 0 30 23" fill="none" xmlns="http://www.w3.org/2000/svg"><path d="M27.054 0H2.946A2.946 2.946 0 000 2.946v14.101c.436-.02.857.243.796.798-.197 1.806.007 3.623 1.958 4.134 1.38.362 2.88.406 4.281.218 2.321-.311 4.518-.41 6.868-.366 2.717.05 5.44.124 8.155-.027 2.358-.132 4.732-.84 7.08-.79a.803.803 0 01.514.186A2.93 2.93 0 0030 19.813V2.946A2.946 2.946 0 0027.054 0z" fill="#59AFFF"/><path d="M8.793 6.724L0 16.616v3.197a2.946 2.946 0 002.946 2.946h14.123l2.069-4.397L8.793 6.724z" fill="#3469AD"/><path d="M19.655 10.345a2.586 2.586 0 100-5.173 2.586 2.586 0 000 5.173z" fill="#fff"/><path d="M23.276 13.707l-8.046 9.052h11.824a2.945 2.945 0 002.698-1.766l-6.476-7.286z" fill="#528AD2"/></svg>