<svg width="32" height="30" viewBox="0 0 32 30" fill="none" xmlns="http://www.w3.org/2000/svg"><path d="M.366 8.577l15.267 7.349a.646.646 0 00.56 0l15.268-7.349a.646.646 0 000-1.164L16.194.063a.646.646 0 00-.56 0L.365 7.414a.646.646 0 000 1.164z" fill="#59AFFF"/><path d="M.366 15.582l15.267 7.349a.647.647 0 00.56 0l15.268-7.349a.646.646 0 000-1.165l-3.221-1.55-10.23 4.924a4.863 4.863 0 01-2.096.478 4.865 4.865 0 01-2.097-.478l-10.23-4.924-3.221 1.55a.646.646 0 000 1.165z" fill="#4D91E8"/><path d="M31.461 21.422l-3.22-1.55-10.231 4.924a4.863 4.863 0 01-2.096.478 4.866 4.866 0 01-2.097-.478l-10.23-4.924-3.221 1.55a.646.646 0 000 1.165l15.267 7.349a.647.647 0 00.56 0l15.268-7.349a.646.646 0 000-1.165z" fill="#3469AD"/></svg>