<svg width="36" height="23" viewBox="0 0 36 23" fill="none" xmlns="http://www.w3.org/2000/svg"><path d="M27.675 7.097l-.5.21v8.045l.5.165 7.06 3.309V3.788l-7.06 3.309z" fill="#4D91E8"/><path d="M27.176 10.32v5.032l.499.165 7.06 3.309v-5.033l-7.06-3.308-.5-.166z" fill="#3469AD"/><path d="M34.734 20.935a1.266 1.266 0 01-1.265-1.265V2.944a1.265 1.265 0 112.53 0V19.67a1.264 1.264 0 01-1.265 1.265z" fill="#59AFFF"/><path d="M24.38 22.614H3.295A3.295 3.295 0 010 19.319V3.295A3.295 3.295 0 013.295 0H24.38a3.295 3.295 0 013.295 3.295v16.024a3.295 3.295 0 01-3.295 3.295z" fill="#4D91E8"/><path d="M5.794 19.22V3.393A3.394 3.394 0 019.188 0H3.394A3.394 3.394 0 000 3.394V19.22a3.394 3.394 0 003.394 3.395h5.794a3.394 3.394 0 01-3.394-3.395z" fill="#3469AD"/><path d="M17.775 10.21l-5.431-3.703c-.88-.6-2.074.03-2.074 1.096v7.407a1.327 1.327 0 002.074 1.096l5.431-3.703a1.326 1.326 0 000-2.192z" fill="#fff"/></svg>