<svg width="68" height="48" viewBox="0 0 68 48" fill="none" xmlns="http://www.w3.org/2000/svg"><path d="M66.599 7.407a8.495 8.495 0 00-5.993-5.96C55.284 0 33.999 0 33.999 0S12.715 0 7.393 1.393C4.537 2.172 2.184 4.51 1.4 7.407 0 12.697 0 23.667 0 23.667s0 11.026 1.4 16.26a8.496 8.496 0 005.994 5.959C12.77 47.334 34 47.334 34 47.334s21.285 0 26.606-1.393a8.495 8.495 0 005.994-5.958c1.4-5.29 1.4-16.26 1.4-16.26s.056-11.027-1.401-16.316z" fill="#4D91E8"/><path d="M27.223 33.802l17.7-10.135-17.7-10.135v20.27z" fill="#fff"/></svg>