<?xml version="1.0" encoding="utf-8"?><svg fill="none" xmlns="http://www.w3.org/2000/svg" viewBox="0 0 14.71 14.77" width="14.71" height="14.77"><path d="M11.975 9.729a.845.845 0 00-.604-.255h-.25a.244.244 0 01-.173-.072.253.253 0 01-.011-.34c.775-.933 1.26-2.195 1.26-3.456A5.561 5.561 0 006.623.002C3.402-.078.889 2.449.889 5.527c0 3.079 2.513 5.605 5.576 5.605a5.293 5.293 0 003.437-1.266.251.251 0 01.34.01c.045.046.07.108.07.172v.255c0 .228.09.446.251.607l3.435 3.452a.895.895 0 001.274-1.256l-3.297-3.377zm-5.51-.255c-2.12 0-3.849-1.736-3.849-3.947 0-2.21 1.728-3.868 3.849-3.868 2.199 0 3.926 1.737 3.926 3.868 0 2.132-1.727 3.947-3.926 3.947z" fill="currentColor"/></svg>