<?xml version="1.0" encoding="utf-8"?><svg xmlns="http://www.w3.org/2000/svg" xmlns:xlink="http://www.w3.org/1999/xlink"><symbol fill="none" viewBox="0 0 14.71 14.77" id="search" xmlns="http://www.w3.org/2000/svg"><path d="M11.975 9.729a.845.845 0 00-.604-.255h-.25a.244.244 0 01-.173-.072.253.253 0 01-.011-.34c.775-.933 1.26-2.195 1.26-3.456A5.561 5.561 0 006.623.002C3.402-.078.889 2.449.889 5.527c0 3.079 2.513 5.605 5.576 5.605a5.293 5.293 0 003.437-1.266.251.251 0 01.34.01c.045.046.07.108.07.172v.255c0 .228.09.446.251.607l3.435 3.452a.895.895 0 001.274-1.256l-3.297-3.377zm-5.51-.255c-2.12 0-3.849-1.736-3.849-3.947 0-2.21 1.728-3.868 3.849-3.868 2.199 0 3.926 1.737 3.926 3.868 0 2.132-1.727 3.947-3.926 3.947z" fill="currentColor"/></symbol><symbol viewBox="0 0 28 28" id="web2ru" xmlns="http://www.w3.org/2000/svg"><path fill="currentColor" d="M5.5 25.1c1.5 0 2.6-1.2 2.6-2.6 0-.7-.2-1.3-.7-1.8l2.1-4c.2.1.5.1.7.1.6 0 1.2-.2 1.7-.6l2.9 2.4c-.1.3-.2.7-.2 1 0 1.5 1.2 2.6 2.6 2.6 1.5 0 2.6-1.2 2.6-2.6 0-.7-.3-1.4-.9-2l3.3-11.4c1.5 0 2.6-1.2 2.6-2.6 0-1.5-1.2-2.6-2.6-2.6-1.4 0-2.6 1-2.6 2.5 0 .9.5 1.7 1.2 2.2l-3.2 11.2h-.4c-.5 0-1 .2-1.5.5l-3-2.5c.1-.3.1-.5.1-.8 0-1.5-1.2-2.6-2.6-2.6-1.4 0-2.6 1.1-2.6 2.5 0 .6.2 1.3.7 1.7l-2.1 4.1c-.2-.1-.4-.1-.7-.1-1.5 0-2.6 1.2-2.6 2.6 0 1.4 1.1 2.8 2.6 2.8zm-1.2-2.7c0-.6.5-1.1 1.1-1.1.6 0 1.1.5 1.1 1.1 0 .6-.5 1.1-1.1 1.1-.6.1-1.1-.5-1.1-1.1zM9.1 14c0-.6.5-1.1 1.1-1.1.6 0 1.1.5 1.1 1.1 0 .6-.5 1.1-1.1 1.1-.6 0-1.1-.4-1.1-1.1zm7 5.5c0-.6.5-1.1 1.1-1.1.6 0 1.1.5 1.1 1.1 0 .6-.5 1.1-1.1 1.1-.6.1-1.1-.4-1.1-1.1zm5-16c0-.6.5-1.1 1.1-1.1.6 0 1.1.5 1.1 1.1 0 .6-.5 1.1-1.1 1.1-.6 0-1.1-.5-1.1-1.1zm7.4 22.9h-.2l-4.5-1.8-.4-.2v2H1.5V5.3h2.1l-.2-.4L1.5.2V0H0v27.9h28.7v-1.5h-.2z"/></symbol></svg>