<?xml version="1.0" encoding="utf-8"?><svg xmlns="http://www.w3.org/2000/svg" xmlns:xlink="http://www.w3.org/1999/xlink"><symbol fill="none" viewBox="0 0 4.07 7.16" id="angle" xmlns="http://www.w3.org/2000/svg"><path fill-rule="evenodd" clip-rule="evenodd" d="M1 7.493l3.49-3.58-.581-.596L.999.333.42.93l2.908 2.984L.418 6.897 1 7.493z" fill="currentColor"/></symbol><symbol viewBox="0 0 16 10" fill="none" id="angle-r" xmlns="http://www.w3.org/2000/svg"><path d="M8.563.855a.828.828 0 00-1.16 0L.546 7.675c-.317.352-.317.88 0 1.196l.808.809c.317.316.844.316 1.196 0L8 4.266l5.414 5.414c.352.316.879.316 1.195 0l.809-.809c.316-.316.316-.844 0-1.195L8.563.856z" fill="currentColor"/></symbol><symbol fill="none" viewBox="0 0 11 20" id="i-facebook" xmlns="http://www.w3.org/2000/svg"><path d="M6.921 20v-9.118h3.142l.47-3.55H6.92V5.053c0-1.024.29-1.732 1.811-1.732h1.935V.142A26.231 26.231 0 007.849 0C5.065 0 3.153 1.656 3.153 4.695V7.32H0v3.551h3.153v9.118h3.768V20z" fill="currentColor"/></symbol><symbol fill="none" viewBox="0 0 20 20" id="i-instagram" xmlns="http://www.w3.org/2000/svg"><path d="M17.07 0H2.93A2.933 2.933 0 000 2.93v14.14A2.933 2.933 0 002.93 20h14.14A2.933 2.933 0 0020 17.07V2.93A2.933 2.933 0 0017.07 0zm-7.03 15.234a5.28 5.28 0 01-5.274-5.273 5.28 5.28 0 015.273-5.274 5.28 5.28 0 015.274 5.274 5.28 5.28 0 01-5.274 5.273zm5.858-9.375a1.76 1.76 0 01-1.757-1.757c0-.97.788-1.758 1.757-1.758.97 0 1.758.788 1.758 1.758a1.76 1.76 0 01-1.758 1.757z" fill="currentColor"/><path d="M10.04 5.86a4.107 4.107 0 00-4.102 4.1 4.107 4.107 0 004.101 4.102 4.107 4.107 0 004.102-4.101 4.107 4.107 0 00-4.102-4.102z" fill="currentColor"/></symbol><symbol fill="none" viewBox="0 0 14.71 14.77" id="search" xmlns="http://www.w3.org/2000/svg"><path d="M11.975 9.729a.845.845 0 00-.604-.255h-.25a.244.244 0 01-.173-.072.253.253 0 01-.011-.34c.775-.933 1.26-2.195 1.26-3.456A5.561 5.561 0 006.623.002C3.402-.078.889 2.449.889 5.527c0 3.079 2.513 5.605 5.576 5.605a5.293 5.293 0 003.437-1.266.251.251 0 01.34.01c.045.046.07.108.07.172v.255c0 .228.09.446.251.607l3.435 3.452a.895.895 0 001.274-1.256l-3.297-3.377zm-5.51-.255c-2.12 0-3.849-1.736-3.849-3.947 0-2.21 1.728-3.868 3.849-3.868 2.199 0 3.926 1.737 3.926 3.868 0 2.132-1.727 3.947-3.926 3.947z" fill="currentColor"/></symbol><symbol fill="none" viewBox="0 0 3.75 7.04" id="triangle" xmlns="http://www.w3.org/2000/svg"><path d="M4 4.063L.25 7.58V.544L4 4.062z" fill="currentColor"/></symbol><symbol viewBox="0 0 28.7 27.9" id="web2ru" xmlns="http://www.w3.org/2000/svg"><path fill="currentColor" d="M5.5 25.1c1.5 0 2.6-1.2 2.6-2.6 0-.7-.2-1.3-.7-1.8l2.1-4c.2.1.5.1.7.1.6 0 1.2-.2 1.7-.6l2.9 2.4c-.1.3-.2.7-.2 1 0 1.5 1.2 2.6 2.6 2.6 1.5 0 2.6-1.2 2.6-2.6 0-.7-.3-1.4-.9-2l3.3-11.4c1.5 0 2.6-1.2 2.6-2.6 0-1.5-1.2-2.6-2.6-2.6-1.4 0-2.6 1-2.6 2.5 0 .9.5 1.7 1.2 2.2l-3.2 11.2h-.4c-.5 0-1 .2-1.5.5l-3-2.5c.1-.3.1-.5.1-.8 0-1.5-1.2-2.6-2.6-2.6-1.4 0-2.6 1.1-2.6 2.5 0 .6.2 1.3.7 1.7l-2.1 4.1c-.2-.1-.4-.1-.7-.1-1.5 0-2.6 1.2-2.6 2.6 0 1.4 1.1 2.8 2.6 2.8zm-1.2-2.7c0-.6.5-1.1 1.1-1.1.6 0 1.1.5 1.1 1.1 0 .6-.5 1.1-1.1 1.1-.6.1-1.1-.5-1.1-1.1zM9.1 14c0-.6.5-1.1 1.1-1.1.6 0 1.1.5 1.1 1.1 0 .6-.5 1.1-1.1 1.1-.6 0-1.1-.4-1.1-1.1zm7 5.5c0-.6.5-1.1 1.1-1.1.6 0 1.1.5 1.1 1.1 0 .6-.5 1.1-1.1 1.1-.6.1-1.1-.4-1.1-1.1zm5-16c0-.6.5-1.1 1.1-1.1.6 0 1.1.5 1.1 1.1 0 .6-.5 1.1-1.1 1.1-.6 0-1.1-.5-1.1-1.1zm7.4 22.9h-.2l-4.5-1.8-.4-.2v2H1.5V5.3h2.1l-.2-.4L1.5.2V0H0v27.9h28.7v-1.5h-.2z"/></symbol></svg>